<svg version="1.1" id="Layer_1" xmlns="http://www.w3.org/2000/svg" xmlns:xlink="http://www.w3.org/1999/xlink" x="0px" y="0px"
	 width="100%" viewBox="0 0 1080 1080" enable-background="new 0 0 1080 1080" xml:space="preserve">
<path fill="#FFFFFF" opacity="1.000000" stroke="none" 
	d="
M710.000000,1081.000000 
	C473.360596,1081.000000 237.221176,1081.000000 1.040879,1081.000000 
	C1.040879,721.068787 1.040879,361.137604 1.040879,1.103192 
	C360.889618,1.103192 720.779297,1.103192 1080.834473,1.103192 
	C1080.834473,360.999939 1080.834473,720.999939 1080.834473,1081.000000 
	C957.470459,1081.000000 833.985229,1081.000000 710.000000,1081.000000 
M512.676086,189.072052 
	C483.323029,191.386917 454.689240,197.395752 426.920471,207.021698 
	C358.283569,230.814407 301.585358,271.624481 258.301636,329.858398 
	C197.689316,411.406219 176.282715,502.975311 193.397964,603.076904 
	C204.573578,668.439453 232.643890,726.168396 276.839539,775.625732 
	C339.815002,846.098511 418.798828,885.302124 512.850525,893.856262 
	C548.261169,897.076965 583.478455,894.405518 618.097534,886.443726 
	C698.287537,868.001221 765.040649,827.184692 816.334167,762.814636 
	C883.283691,678.797363 907.582886,583.062866 888.518494,477.360535 
	C872.983826,391.229309 829.852112,320.630798 761.871399,265.598785 
	C712.551514,225.673203 656.112244,201.358627 593.347656,191.812012 
	C566.878540,187.785980 540.295776,187.043106 512.676086,189.072052 
z"/>
<path fill="#2563EB" opacity="1.000000" stroke="none" 
	d="
M513.146667,189.049683 
	C540.295776,187.043106 566.878540,187.785980 593.347656,191.812012 
	C656.112244,201.358627 712.551514,225.673203 761.871399,265.598785 
	C829.852112,320.630798 872.983826,391.229309 888.518494,477.360535 
	C907.582886,583.062866 883.283691,678.797363 816.334167,762.814636 
	C765.040649,827.184692 698.287537,868.001221 618.097534,886.443726 
	C583.478455,894.405518 548.261169,897.076965 512.850525,893.856262 
	C418.798828,885.302124 339.815002,846.098511 276.839539,775.625732 
	C232.643890,726.168396 204.573578,668.439453 193.397964,603.076904 
	C176.282715,502.975311 197.689316,411.406219 258.301636,329.858398 
	C301.585358,271.624481 358.283569,230.814407 426.920471,207.021698 
	C454.689240,197.395752 483.323029,191.386917 513.146667,189.049683 
M441.952667,544.497009 
	C441.952637,548.328369 441.926910,552.159912 441.958130,555.991028 
	C442.018219,563.359009 444.506805,565.835266 451.909241,565.840820 
	C471.731781,565.855774 491.554352,565.845886 511.376892,565.845886 
	C513.152039,565.845886 514.927246,565.845886 517.132996,565.845886 
	C517.132996,568.216248 517.132996,570.009888 517.132935,571.803528 
	C517.132812,591.126343 517.128357,610.449219 517.134521,629.772034 
	C517.137390,638.854858 519.473328,641.144226 528.735107,641.153809 
	C537.397034,641.162720 546.059082,641.170532 554.720947,641.151611 
	C563.201904,641.133057 565.782471,638.588684 565.789612,630.187927 
	C565.806335,610.531982 565.794556,590.875977 565.794373,571.220032 
	C565.794373,569.441895 565.794434,567.663757 565.794434,565.771790 
	C567.776001,565.663513 569.094971,565.539001 570.415039,565.527161 
	C590.902100,565.343811 611.389343,565.180237 631.876465,565.000061 
	C638.404846,564.942688 640.949402,562.463379 640.988220,555.949341 
	C641.044800,546.454834 641.019348,536.959656 640.997803,527.464905 
	C640.979492,519.412048 638.606873,516.998657 630.595093,517.006470 
	C610.939209,517.025574 591.283264,517.092407 571.627380,517.138977 
	C569.845581,517.143188 568.063782,517.139526 565.794128,517.139526 
	C565.794128,514.825500 565.794128,513.038391 565.794189,511.251343 
	C565.794373,491.761932 565.809631,472.272522 565.788025,452.783142 
	C565.778625,444.313171 563.277588,441.866272 554.700256,441.848328 
	C545.871704,441.829865 537.043152,441.829315 528.214661,441.848511 
	C519.392578,441.867645 517.136902,444.187469 517.134338,453.209900 
	C517.128845,472.699310 517.132874,492.188690 517.132996,511.678101 
	C517.132996,513.429016 517.132935,515.179932 517.132935,517.831482 
	C494.727020,517.831482 473.086273,517.814636 451.445618,517.841125 
	C444.360535,517.849792 441.997894,520.292419 441.959076,527.507019 
	C441.930359,532.837341 441.952820,538.167847 441.952667,544.497009 
z"/>
<path fill="#FDFEFF" opacity="1.000000" stroke="none" 
	d="
M441.952576,543.997681 
	C441.952820,538.167847 441.930359,532.837341 441.959076,527.507019 
	C441.997894,520.292419 444.360535,517.849792 451.445618,517.841125 
	C473.086273,517.814636 494.727020,517.831482 517.132935,517.831482 
	C517.132935,515.179932 517.132996,513.429016 517.132996,511.678101 
	C517.132874,492.188690 517.128845,472.699310 517.134338,453.209900 
	C517.136902,444.187469 519.392578,441.867645 528.214661,441.848511 
	C537.043152,441.829315 545.871704,441.829865 554.700256,441.848328 
	C563.277588,441.866272 565.778625,444.313171 565.788025,452.783142 
	C565.809631,472.272522 565.794373,491.761932 565.794189,511.251343 
	C565.794128,513.038391 565.794128,514.825500 565.794128,517.139526 
	C568.063782,517.139526 569.845581,517.143188 571.627380,517.138977 
	C591.283264,517.092407 610.939209,517.025574 630.595093,517.006470 
	C638.606873,516.998657 640.979492,519.412048 640.997803,527.464905 
	C641.019348,536.959656 641.044800,546.454834 640.988220,555.949341 
	C640.949402,562.463379 638.404846,564.942688 631.876465,565.000061 
	C611.389343,565.180237 590.902100,565.343811 570.415039,565.527161 
	C569.094971,565.539001 567.776001,565.663513 565.794434,565.771790 
	C565.794434,567.663757 565.794373,569.441895 565.794373,571.220032 
	C565.794556,590.875977 565.806335,610.531982 565.789612,630.187927 
	C565.782471,638.588684 563.201904,641.133057 554.720947,641.151611 
	C546.059082,641.170532 537.397034,641.162720 528.735107,641.153809 
	C519.473328,641.144226 517.137390,638.854858 517.134521,629.772034 
	C517.128357,610.449219 517.132812,591.126343 517.132935,571.803528 
	C517.132996,570.009888 517.132996,568.216248 517.132996,565.845886 
	C514.927246,565.845886 513.152039,565.845886 511.376892,565.845886 
	C491.554352,565.845886 471.731781,565.855774 451.909241,565.840820 
	C444.506805,565.835266 442.018219,563.359009 441.958130,555.991028 
	C441.926910,552.159912 441.952637,548.328369 441.952576,543.997681 
z"/>
</svg>